<svg xmlns="http://www.w3.org/2000/svg" xmlns:xlink="http://www.w3.org/1999/xlink" width="90.445" height="59.499" viewBox="0 0 90.445 59.499"><defs><style>.a{fill:url(#a);}.b{fill:url(#b);}.c{fill:url(#c);}.d{fill:url(#d);}.e{fill:url(#e);}.f{fill:url(#f);}</style><linearGradient id="a" x1="-5.991" y1="1.805" x2="2.646" y2="0.069" gradientUnits="objectBoundingBox"><stop offset="0.16" stop-color="#fbbf5a"/><stop offset="0.523" stop-color="#e46658"/><stop offset="0.854" stop-color="#b35c7e"/></linearGradient><linearGradient id="b" x1="-5.055" y1="1.616" x2="3.582" y2="-0.119" xlink:href="#a"/><linearGradient id="c" x1="0.67" y1="1.092" x2="3.181" y2="-0.991" xlink:href="#a"/><linearGradient id="d" x1="0.115" y1="1.14" x2="3.024" y2="-0.816" xlink:href="#a"/><linearGradient id="e" x1="-0.733" y1="1.114" x2="3.061" y2="-0.775" xlink:href="#a"/><linearGradient id="f" x1="-0.809" y1="0.974" x2="2.167" y2="0.027" xlink:href="#a"/></defs><g transform="translate(-1118.503 -470.295)"><path class="a" d="M1207.429,478.979h-6.077a1.519,1.519,0,0,0-1.519,1.519v36.348a1.519,1.519,0,0,0,1.519,1.519h6.077a1.519,1.519,0,0,0,1.519-1.519V480.5A1.519,1.519,0,0,0,1207.429,478.979Zm-1.519,36.347h-3.039V482.017h3.039Z"/><path class="b" d="M1195.276,478.979H1189.2a1.519,1.519,0,0,0-1.519,1.519v36.348a1.519,1.519,0,0,0,1.519,1.519h6.077a1.519,1.519,0,0,0,1.519-1.519V480.5A1.519,1.519,0,0,0,1195.276,478.979Zm-1.519,36.347h-3.038V482.017h3.038Z"/><path class="c" d="M1146.968,492.685l-4.119-4.147a1.549,1.549,0,0,0-2.162.007l-21.749,23.1a1.521,1.521,0,0,0,.006,2.136l4.119,4.146a1.547,1.547,0,0,0,2.162-.007l21.749-23.1A1.521,1.521,0,0,0,1146.968,492.685ZM1124.134,514.7l-1.977-1.992,19.621-20.934,1.977,1.992Z"/><path class="d" d="M1158.892,489.069l-4.878-3.22a1.533,1.533,0,0,0-2.115.447l-17.462,26.522a1.521,1.521,0,0,0,.441,2.09s4.867,3.213,4.878,3.219a1.551,1.551,0,0,0,2.115-.447l17.462-26.522A1.521,1.521,0,0,0,1158.892,489.069Zm-18.746,25.676L1137.8,513.2l15.82-23.966,2.342,1.547Z"/><path class="e" d="M1167.854,485.9l-5.546-1.845a1.534,1.534,0,0,0-1.927.981l-11.126,29.5a1.52,1.52,0,0,0,.968,1.9l5.546,1.845a1.536,1.536,0,0,0,1.927-.981l11.127-29.5A1.521,1.521,0,0,0,1167.854,485.9Zm-12.586,29.018-2.662-.887,10.2-26.608,2.663.887Z"/><path class="f" d="M1176.883,471.421a1.521,1.521,0,0,0-1.042-.991c-.886-.245-3.122-.489-4.706,2.478-1.1,2.056-.826,5.469-.531,6.988l1.894,9.734a11.589,11.589,0,0,0-2.553,3.725l-5.563,13.338a14.178,14.178,0,0,0,3.014,15.731l2.119,6.291a1.537,1.537,0,0,0,1.891,1.018,1.518,1.518,0,0,0,1.018-1.892l-2.223-6.64a1.516,1.516,0,0,0-.369-.626c-5.882-6.017-2.846-12.3-2.717-12.553.017-.036,5.6-13.429,5.6-13.429,1.117-2.347,2.022-3.01,2.381-3.033a.458.458,0,0,1,.3.111,149.536,149.536,0,0,0-3.715,15.029,1.519,1.519,0,1,0,2.983.578,139.785,139.785,0,0,1,3.89-15.442,1.522,1.522,0,0,0-.129-1.3,4.258,4.258,0,0,0-3.048-2l-1.795-9.22c-.313-1.609-.3-3.993.229-4.976a2.945,2.945,0,0,1,.567-.793l6.906,21.032a5.081,5.081,0,0,1,.053,2.057l-4.976,16.331a1.515,1.515,0,0,0,.034.986s5.636,13.551,5.638,13.557a1.537,1.537,0,0,0,1.963.875,1.519,1.519,0,0,0,.874-1.962l-5.451-13.07,4.843-15.9a8.078,8.078,0,0,0-.077-3.78Z"/></g></svg>