<svg xmlns="http://www.w3.org/2000/svg" xmlns:xlink="http://www.w3.org/1999/xlink" width="72.424" height="62.986" viewBox="0 0 72.424 62.986"><defs><style>.a{fill:url(#a);}.b{fill:url(#b);}.c{fill:url(#c);}.d{fill:url(#d);}.e{fill:url(#e);}.f{fill:url(#f);}.g{fill:url(#g);}.h{fill:url(#h);}.i{fill:url(#i);}</style><linearGradient id="a" x1="-1.526" y1="2.556" x2="2.741" y2="-1.774" gradientUnits="objectBoundingBox"><stop offset="0.16" stop-color="#fbbf5a"/><stop offset="0.523" stop-color="#e46658"/><stop offset="0.854" stop-color="#b35c7e"/></linearGradient><linearGradient id="b" x1="-0.46" y1="3.915" x2="0.757" y2="-0.415" xlink:href="#a"/><linearGradient id="c" x1="-0.779" y1="1.798" x2="3.488" y2="-2.533" xlink:href="#a"/><linearGradient id="d" x1="-0.247" y1="3.157" x2="0.97" y2="-1.173" xlink:href="#a"/><linearGradient id="e" x1="-0.032" y1="1.04" x2="4.235" y2="-3.291" xlink:href="#a"/><linearGradient id="f" x1="-0.034" y1="2.399" x2="1.183" y2="-1.931" xlink:href="#a"/><linearGradient id="g" x1="-1.326" y1="2.542" x2="1.965" y2="-1.336" xlink:href="#a"/><linearGradient id="h" x1="-0.747" y1="1.86" x2="2.544" y2="-2.018" xlink:href="#a"/><linearGradient id="i" x1="-0.168" y1="1.177" x2="3.124" y2="-2.7" xlink:href="#a"/></defs><g transform="translate(-1127.275 -339.065)"><path class="a" d="M1141.1,357.95h-12.893a.979.979,0,0,1-.932-1.02V344.563a.979.979,0,0,1,.932-1.02H1141.1a.98.98,0,0,1,.933,1.02V356.93A.98.98,0,0,1,1141.1,357.95Zm-11.96-2.041h11.028V345.584H1129.14Z"/><path class="b" d="M1198.766,357.95H1148.9a.98.98,0,0,1-.932-1.02V344.563a.98.98,0,0,1,.932-1.02h49.869a.98.98,0,0,1,.933,1.02V356.93A.98.98,0,0,1,1198.766,357.95Zm-48.936-2.041h48V345.584h-48Z"/><path class="c" d="M1141.1,380h-12.893a.979.979,0,0,1-.932-1.021V366.614a.978.978,0,0,1,.932-1.02H1141.1a.979.979,0,0,1,.933,1.02V378.98A.98.98,0,0,1,1141.1,380Zm-11.96-2.041h11.028V367.634H1129.14Z"/><path class="d" d="M1198.766,380H1148.9a.98.98,0,0,1-.932-1.021V366.614a.979.979,0,0,1,.932-1.02h49.869a.979.979,0,0,1,.933,1.02V378.98A.98.98,0,0,1,1198.766,380Zm-48.936-2.041h48V367.634h-48Z"/><path class="e" d="M1141.1,402.051h-12.893a.979.979,0,0,1-.932-1.021V388.664a.979.979,0,0,1,.932-1.02H1141.1a.98.98,0,0,1,.933,1.02V401.03A.98.98,0,0,1,1141.1,402.051Zm-11.96-2.041h11.028V389.685H1129.14Z"/><path class="f" d="M1198.766,402.051H1148.9a.98.98,0,0,1-.932-1.021V388.664a.98.98,0,0,1,.932-1.02h49.869a.98.98,0,0,1,.933,1.02V401.03A.98.98,0,0,1,1198.766,402.051Zm-48.936-2.041h48V389.685h-48Z"/><path class="g" d="M1135.091,355.154a.887.887,0,0,1-.659-.3l-4.432-4.85a1.09,1.09,0,0,1,0-1.443.878.878,0,0,1,1.319,0l3.772,4.129,12.177-13.327a.876.876,0,0,1,1.319,0,1.09,1.09,0,0,1,0,1.443l-12.837,14.048A.887.887,0,0,1,1135.091,355.154Z"/><path class="h" d="M1135.091,377.317a.887.887,0,0,1-.659-.3L1130,372.169a1.091,1.091,0,0,1,0-1.444.878.878,0,0,1,1.319,0l3.772,4.129,12.177-13.327a.876.876,0,0,1,1.319,0,1.09,1.09,0,0,1,0,1.443l-12.837,14.048A.887.887,0,0,1,1135.091,377.317Z"/><path class="i" d="M1135.091,399.481a.89.89,0,0,1-.659-.3l-4.432-4.85a1.091,1.091,0,0,1,0-1.444.878.878,0,0,1,1.319,0l3.772,4.129,12.177-13.327a.878.878,0,0,1,1.319,0,1.09,1.09,0,0,1,0,1.443l-12.837,14.049A.89.89,0,0,1,1135.091,399.481Z"/></g></svg>