<svg xmlns="http://www.w3.org/2000/svg" xmlns:xlink="http://www.w3.org/1999/xlink" width="60.624" height="80.729" viewBox="0 0 60.624 80.729"><defs><style>.a{fill:url(#a);}.b{fill:url(#b);}.c{fill:url(#c);}.d{fill:url(#d);}.e{fill:url(#e);}.f{fill:url(#f);}.g{fill:url(#g);}.h{fill:url(#h);}.i{fill:url(#i);}</style><linearGradient id="a" x1="-0.144" y1="1.949" x2="1.046" y2="-0.635" gradientUnits="objectBoundingBox"><stop offset="0.16" stop-color="#fbbf5a"/><stop offset="0.523" stop-color="#e46658"/><stop offset="0.854" stop-color="#b35c7e"/></linearGradient><linearGradient id="b" x1="-1.46" y1="4.018" x2="0.921" y2="-0.256" xlink:href="#a"/><linearGradient id="c" x1="-5.58" y1="1.473" x2="8.705" y2="-0.813" xlink:href="#a"/><linearGradient id="d" x1="-4.454" y1="1.293" x2="9.831" y2="-0.993" xlink:href="#a"/><linearGradient id="e" x1="-4.04" y1="1.681" x2="10.244" y2="-2.034" xlink:href="#a"/><linearGradient id="f" x1="0.326" y1="1.266" x2="1.12" y2="-2.449" xlink:href="#a"/><linearGradient id="g" x1="-0.31" y1="10.617" x2="2.07" y2="-19.103" xlink:href="#a"/><linearGradient id="h" x1="0.253" y1="3.589" x2="2.633" y2="-26.131" xlink:href="#a"/><linearGradient id="i" x1="-1.112" y1="1.171" x2="13.173" y2="-4.773" xlink:href="#a"/></defs><g transform="translate(-1133.175 -214.748)"><path class="a" d="M1172.328,262.639h-1.263v-2.526h1.263a3.625,3.625,0,0,0,3.789-3.789V242.431c0-3.856-8.294-6.315-12.63-6.315s-12.63,2.459-12.63,6.315v13.893a3.625,3.625,0,0,0,3.789,3.789h1.263v2.526h-1.263a6.107,6.107,0,0,1-6.315-6.315V242.431c0-5.887,9.717-8.841,15.156-8.841s15.156,2.954,15.156,8.841v13.893A6.108,6.108,0,0,1,1172.328,262.639Z"/><path class="b" d="M1163.487,232.311a7.651,7.651,0,0,1-7.578-7.707v-2.149a7.579,7.579,0,1,1,15.156,0V224.6A7.651,7.651,0,0,1,1163.487,232.311Zm0-15.037a5.063,5.063,0,0,0-5.052,5.181V224.6a5.054,5.054,0,1,0,10.1,0v-2.149A5.063,5.063,0,0,0,1163.487,217.274Z"/><rect class="c" width="2.526" height="32.838" transform="translate(1169.802 247.483)"/><rect class="d" width="2.526" height="32.838" transform="translate(1154.646 247.483)"/><rect class="e" width="2.526" height="20.208" transform="translate(1162.224 260.113)"/><path class="f" d="M1163.487,290.425c-12.748,0-22.734-4.845-22.734-11.031,0-3.72,3.511-7.027,9.633-9.073a1.263,1.263,0,1,1,.8,2.395c-4.878,1.631-7.908,4.19-7.908,6.678,0,4.108,8.121,8.5,20.208,8.5s20.208-4.4,20.208-8.5c0-2.512-3.074-5.085-8.02-6.715a1.263,1.263,0,1,1,.79-2.4c6.2,2.043,9.756,5.365,9.756,9.114C1186.221,285.58,1176.235,290.425,1163.487,290.425Z"/><path class="g" d="M1192.536,280.321h-12.63a1.263,1.263,0,1,1,0-2.526h12.63a1.263,1.263,0,0,1,0,2.526Z"/><path class="h" d="M1147.068,280.321h-12.63a1.263,1.263,0,0,1,0-2.526h12.63a1.263,1.263,0,1,1,0,2.526Z"/><path class="i" d="M1163.487,295.477a1.263,1.263,0,0,1-1.263-1.263v-10.1a1.263,1.263,0,1,1,2.526,0v10.1A1.263,1.263,0,0,1,1163.487,295.477Z"/></g></svg>