<svg xmlns="http://www.w3.org/2000/svg" width="19.031" height="18.165" viewBox="0 0 19.031 18.165"><defs><style>.a{fill:#fff;}</style></defs><g transform="translate(-8.814 -9)"><path class="a" d="M4.079,0H0V12.256H4.079Z" transform="translate(9.055 14.908)"/><path class="a" d="M4.589,2.117A2.119,2.119,0,0,0,2.308,0a2.124,2.124,0,1,0-.053,4.236h.026A2.128,2.128,0,0,0,4.589,2.117Z" transform="translate(8.814 9)"/><path class="a" d="M12.453,5.517C12.453,1.752,10.441,0,7.757,0A4.051,4.051,0,0,0,4.08,2.024V.288H0c.054,1.15,0,12.256,0,12.256H4.08V5.7a2.786,2.786,0,0,1,.134-.994A2.232,2.232,0,0,1,6.307,3.216c1.477,0,2.067,1.124,2.067,2.771v6.557h4.079Z" transform="translate(15.392 14.621)"/></g></svg>