<svg xmlns="http://www.w3.org/2000/svg" width="23.234" height="19.2" viewBox="0 0 23.234 19.2"><defs><style>.a{fill:#fff;}</style></defs><path class="a" d="M11.281,5.108l.05.83-.839-.1A13.653,13.653,0,0,1,2.5,1.9L1.393.8l-.285.814A4.891,4.891,0,0,0,2.149,6.633c.672.712.52.814-.638.39a1.98,1.98,0,0,0-.789-.186,6.073,6.073,0,0,0,.6,2.271,5.421,5.421,0,0,0,2.3,2.169l.823.39-.974.017c-.94,0-.974.017-.873.373a5.075,5.075,0,0,0,3.139,2.779l1.041.356-.907.542a9.452,9.452,0,0,1-4.5,1.254A4.971,4.971,0,0,0,0,17.124a12.771,12.771,0,0,0,3.24,1.491,14.18,14.18,0,0,0,11.013-1.254,14.738,14.738,0,0,0,5.59-6.576A17.481,17.481,0,0,0,20.984,5.7c0-.78.05-.881.99-1.813a11.067,11.067,0,0,0,1.175-1.3c.168-.322.151-.322-.705-.034-1.427.508-1.628.441-.923-.322A4.93,4.93,0,0,0,22.663.413c0-.051-.252.034-.537.186a9.366,9.366,0,0,1-1.477.576l-.907.288L18.92.9A6.833,6.833,0,0,0,17.493.159a5.735,5.735,0,0,0-2.938.068A4.852,4.852,0,0,0,11.281,5.108Z"/></svg>